<?xml version="1.0" encoding="UTF-8"?>
<svg width="600px" height="600px" viewBox="0 0 600 600" version="1.1" xmlns="http://www.w3.org/2000/svg" xmlns:xlink="http://www.w3.org/1999/xlink">
    <title>assets/icon</title>
    <g id="/assets/icon" stroke="none" stroke-width="1" fill="none" fill-rule="evenodd">
        <g id="icon" transform="translate(0.000000, 71.000000)" fill="#23272A" fill-rule="nonzero">
            <path d="M507.925339,37.965701 C469.683368,20.3930289 428.674637,7.44625867 385.797455,0.031105605 C385.01661,-0.11200453 384.23661,0.245635399 383.834356,0.960932184 C378.560272,10.3550081 372.7183,22.6103474 368.627314,32.2429882 C322.510132,25.3286783 276.62957,25.3286783 231.458022,32.2429882 C227.366191,22.3962323 221.312106,10.3550081 216.01436,0.960932184 C215.612107,0.269501193 214.832107,-0.088138736 214.051262,0.031105605 C171.197741,7.42256214 130.18901,20.3693324 91.9233772,37.965701 C91.5921096,38.1087265 91.3081659,38.3473845 91.1197152,38.657132 C13.3347875,155.035885 -7.97375567,268.554128 2.47950324,380.664966 C2.52680183,381.213372 2.83424689,381.738081 3.25995111,382.071525 C54.5802231,419.815024 104.292673,442.728726 153.081967,457.916511 C153.862812,458.155169 154.690136,457.869118 155.187038,457.22508 C166.728164,441.441496 177.016051,424.798913 185.836896,407.297331 C186.357459,406.272456 185.860558,405.056316 184.796614,404.650936 C168.478305,398.451753 152.939995,390.893406 137.993235,382.310183 C136.810982,381.618752 136.716334,379.925296 137.803939,379.114536 C140.949291,376.754192 144.095489,374.298215 147.098869,371.818543 C147.642249,371.365769 148.399432,371.270137 149.038305,371.556188 C247.232106,416.453502 353.538582,416.453502 450.573791,371.556188 C451.212664,371.24644 451.969847,371.342073 452.53689,371.794846 C455.541115,374.274519 458.686467,376.754192 461.855481,379.114536 C462.943087,379.925296 462.872101,381.618752 461.689847,382.310183 C446.743087,391.060128 431.204777,398.451753 414.862806,404.627239 C413.798862,405.032619 413.325623,406.272456 413.846186,407.297331 C422.856327,424.77437 433.144214,441.416954 444.472383,457.201384 C444.945622,457.869118 445.796608,458.155169 446.577453,457.916511 C495.603368,442.728726 545.315479,419.815024 596.635759,382.071525 C597.085337,381.738081 597.369281,381.237068 597.416605,380.688663 C609.927027,251.076242 576.462239,138.488934 508.705339,38.6808285 C508.539705,38.3473845 508.256607,38.1087265 507.925339,37.965701 Z M200.500558,312.401178 C170.93746,312.401178 146.578305,285.220408 146.578305,251.839609 C146.578305,218.45881 170.465065,191.27804 200.500558,191.27804 C230.771825,191.27804 254.895204,218.697468 254.421965,251.839609 C254.421965,285.220408 230.535205,312.401178 200.500558,312.401178 Z M399.868722,312.401178 C370.306469,312.401178 345.947315,285.220408 345.947315,251.839609 C345.947315,218.45881 369.83323,191.27804 399.868722,191.27804 C430.140834,191.27804 454.263368,218.697468 453.790974,251.839609 C453.790974,285.220408 430.140834,312.401178 399.868722,312.401178 Z" id="Shape"></path>
        </g>
    </g>
</svg>